<?xml version="1.0" encoding="UTF-8"?>
<svg id="b" data-name="Trumpet-Flat--Streamline-Fluent-Emoji.svg" xmlns="http://www.w3.org/2000/svg" width="128" height="128" viewBox="0 0 128 128">
  <g>
    <path d="M64,124.5c-33.359,0-60.5-27.141-60.5-60.5S30.641,3.5,64,3.5s60.5,27.141,60.5,60.5-27.141,60.5-60.5,60.5Z" fill="#900" stroke-width="0"/>
    <path d="M64,7c31.48,0,57,25.52,57,57s-25.52,57-57,57S7,95.48,7,64,32.52,7,64,7M64,0C28.71,0,0,28.71,0,64s28.71,64,64,64,64-28.71,64-64S99.29,0,64,0h0Z" fill="#000" stroke-width="0"/>
  </g>
  <g>
    <g>
      <path d="M64,107.534c-2.945,0-5.586-1.521-7.063-4.07l-20.439-35.279c-7.209-12.445-5.142-28.239,5.028-38.409,6.003-6.004,13.985-9.31,22.475-9.31s16.472,3.306,22.476,9.31c10.17,10.169,12.237,25.964,5.027,38.409l-20.439,35.279c-1.478,2.549-4.118,4.07-7.063,4.07Z" fill="#fc0" stroke-width="0"/>
      <path d="M64,23.965c7.239,0,14.477,2.761,20,8.284h0c9.063,9.064,10.899,23.089,4.474,34.18l-20.439,35.28c-.898,1.55-2.467,2.326-4.035,2.326s-3.137-.775-4.035-2.326l-20.439-35.28c-6.425-11.091-4.59-25.116,4.474-34.18h0c5.523-5.523,12.762-8.284,20-8.284M64,16.965c-9.425,0-18.286,3.67-24.95,10.335-11.29,11.29-13.585,28.823-5.581,42.638l20.439,35.28c2.11,3.642,5.883,5.816,10.092,5.816s7.982-2.174,10.092-5.816l20.439-35.28c8.004-13.815,5.709-31.349-5.581-42.638-6.664-6.664-15.525-10.335-24.95-10.335h0Z" fill="#000" stroke-width="0"/>
    </g>
    <g>
      <path d="M64,62.981c-2.892,0-5.61-1.126-7.654-3.171-4.222-4.221-4.222-11.089,0-15.31,2.044-2.045,4.763-3.171,7.654-3.171s5.61,1.126,7.654,3.171c4.222,4.221,4.222,11.089,0,15.31-2.044,2.045-4.763,3.171-7.654,3.171Z" fill="#900" stroke-width="0"/>
      <path d="M64,44.83c1.875,0,3.75.715,5.18,2.146,2.861,2.861,2.861,7.499,0,10.36-1.43,1.43-3.305,2.146-5.18,2.146s-3.75-.715-5.18-2.146c-2.861-2.861-2.861-7.499,0-10.36,1.43-1.43,3.305-2.146,5.18-2.146M64,37.83c-3.827,0-7.424,1.49-10.13,4.196-5.586,5.585-5.586,14.674,0,20.259,2.706,2.706,6.303,4.196,10.13,4.196s7.424-1.49,10.13-4.196c5.586-5.586,5.586-14.674,0-20.259-2.706-2.706-6.303-4.196-10.13-4.196h0Z" fill="#000" stroke-width="0"/>
    </g>
  </g>
</svg>